<?xml version="1.0" encoding="UTF-8"?><svg id="a" xmlns="http://www.w3.org/2000/svg" viewBox="0 0 409.6 408.83"><defs><style>.b{fill:#f2f2f2;}.c{opacity:0;}</style></defs><g><path class="b" d="M.34,44.74c.9-3.3,1.62-6.65,2.71-9.88C10.26,13.67,29.42,.09,52.4,.05,98.31-.02,144.22,.03,190.12,.03c30.21,0,60.41-.08,90.62,.03,24.85,.09,44.95,16.1,50.43,40.12,.91,3.98,1.25,8.16,1.26,12.26,.08,50.17,.09,100.33,.04,150.5-.03,30.38-22.29,52.57-52.73,52.59-60.41,.04-120.82,.03-181.23-.03-2.8,0-4.97,.65-7.18,2.51-22,18.48-44.08,36.88-66.21,55.21-2.52,2.09-5.27,4.17-8.27,5.37-6.24,2.5-13.95-1-16.5-9.55,0-88.09,0-176.19,0-264.28Zm25.55,234.47c1.74-1.39,2.78-2.19,3.78-3.02,16.46-13.71,32.96-27.36,49.33-41.16,4.19-3.53,8.71-5.12,14.2-5.11,61.73,.09,123.47,.06,185.2,.06,18.09,0,28.53-10.4,28.54-28.41,0-49.09,0-98.19,0-147.28,0-18.34-10.34-28.7-28.65-28.7-74.51,0-149.01,0-223.52,0-18.6,0-28.88,10.27-28.88,28.87,0,73.17,0,146.35,0,219.52v5.23Z"/><path class="b" d="M393.97,408.83c-3.13-1.94-6.49-3.59-9.35-5.86-17.94-14.21-35.72-28.61-53.69-42.77-1.79-1.41-4.48-2.36-6.75-2.37-56.42-.13-112.84-.07-169.26-.12-25.25-.02-45.71-15.7-50.85-39.94-1.76-8.32-1.48-17.19-1.22-25.78,.19-6.36,6.34-10.99,12.68-10.89,6.49,.1,11.99,5.12,12.45,11.7,.28,3.97,.09,7.98,.11,11.97,.09,16.69,10.8,27.38,27.57,27.39,57.48,.03,114.97,.07,172.45-.08,6.24-.02,11.26,1.79,16.02,5.72,12.01,9.89,24.26,19.5,36.42,29.22,.78,.63,1.63,1.18,3.04,2.19,0-1.95,0-3.22,0-4.49,0-69.59,0-139.19,0-208.78,0-16.82-9.15-26.72-25.99-28.2-7.33-.64-12.5-6.17-12.3-13.13,.21-7.1,5.96-12.38,13.46-12.37,26.28,.04,48.97,21.77,50.28,48.16,.11,2.12,.1,4.26,.1,6.39,0,78.38-.06,156.75,.11,235.13,.02,7.9-2.29,13.66-9.69,16.91h-5.59Z"/><path class="b" d="M166.84,76.68c25.14,0,50.28-.05,75.42,.03,9.64,.03,15.87,8.4,12.77,16.96-1.85,5.12-5.67,7.88-11.03,8.49-1.32,.15-2.66,.08-3.99,.08-49.08,0-98.17,0-147.25,0-1.86,0-3.76,.06-5.56-.31-6.47-1.33-10.81-7.34-10.13-13.78,.69-6.46,5.93-11.35,12.74-11.4,15.83-.12,31.66-.05,47.49-.05,9.84,0,19.69,0,29.53,0Z"/><path class="b" d="M140.88,153.33c-16.89,0-33.78,.09-50.67-.04-9.65-.07-15.87-9.16-12.17-17.65,2.3-5.28,6.58-7.84,12.33-7.85,12.37-.02,24.74,0,37.11,0,21.28,0,42.56-.07,63.84,.03,9.71,.05,16.02,8.96,12.44,17.48-2.29,5.47-6.69,8.04-12.61,8.04-16.76,0-33.52,0-50.28,0Z"/></g><g class="c"><path class="b" d="M298.08,399.47c-5.41-.87-10.84-1.64-16.23-2.64-20.99-3.92-40.6-11.81-59.66-21.16-31.22-15.33-60.26-34.11-86.29-57.16-52.16-46.19-93.44-100.14-116.65-166.64-5.73-16.43-9.17-33.32-8.78-50.85,.38-16.87,5.86-31.7,17.79-43.82,10.56-10.72,20.8-21.85,32.13-31.71,18.33-15.97,37.22-15.78,54.79,.84,17.76,16.79,34.91,34.28,51.65,52.11,13.73,14.63,13.65,34.49,.24,49.37-9.39,10.42-19.59,20.12-29.6,29.98-1.98,1.95-2.16,3.31-.99,5.75,9.95,20.87,24.4,38.48,40.01,55.21,15.89,17.03,33.37,32.25,53.05,44.8,5.16,3.29,10.76,5.91,16.03,9.04,2.11,1.25,3.38,1.03,5.09-.72,8.33-8.52,16.79-16.92,25.25-25.31,6.6-6.55,13.98-11.84,23.44-13.4,12.76-2.11,23.57,2.04,32.57,10.88,16.37,16.09,32.58,32.36,48.77,48.63,17.41,17.5,18.82,37.33,2.73,55.88-11.15,12.85-23.49,24.73-35.86,36.44-8.78,8.31-19.9,12.37-31.92,13.81-.85,.1-1.67,.45-2.5,.69h-15.06Zm7.41-19.41c11.62,.23,22.35-2.69,30.78-10.84,11.27-10.89,22.22-22.13,32.83-33.65,8.09-8.78,7.93-18.24-.44-26.83-16.81-17.25-33.9-34.23-51.1-51.09-6.92-6.79-15.85-6.85-23.56-.88-1.78,1.38-3.4,2.97-5,4.56-9.34,9.29-18.61,18.65-27.98,27.91-6.1,6.02-12.67,7.06-20.26,3.21-5.47-2.78-10.95-5.59-16.21-8.74-24.84-14.9-46.39-33.76-65.82-55.12-16.43-18.06-31.34-37.18-41.39-59.69-4.47-10.01-3.4-15.6,4.51-23.23,9.21-8.88,18.4-17.79,27.36-26.92,10.64-10.84,10.53-19.63,.07-30.65-.09-.09-.17-.18-.26-.27-15.52-15.52-31-31.1-46.62-46.52-2.45-2.42-5.36-4.68-8.47-6.09-8.79-3.96-15.85-.05-22.01,5.97-9.51,9.3-19.12,18.52-28.12,28.29-4.24,4.61-8.06,10.06-10.49,15.8-5.28,12.48-3.91,25.63-1.3,38.5,5.07,25.03,14.99,48.29,27.36,70.48,21.85,39.23,49.65,73.8,82.92,103.93,33.3,30.15,70.66,53.95,112.45,70.6,16.28,6.48,33.12,10.72,50.74,11.26Z"/><path class="b" d="M313.55,402.47l-15.95-.04c-1.7-.27-3.4-.54-5.1-.8-3.67-.57-7.47-1.16-11.2-1.85-18.5-3.45-37.7-10.26-60.43-21.42-32.61-16.01-61.87-35.39-86.96-57.61-57.36-50.78-95.79-105.7-117.49-167.9-6.39-18.32-9.32-35.3-8.94-51.9,.41-18.28,6.69-33.7,18.66-45.85,2.48-2.52,4.94-5.06,7.4-7.6,7.93-8.18,16.14-16.65,24.89-24.27,19.41-16.92,40.3-16.59,58.83,.92,16.34,15.45,33.27,32.53,51.77,52.23,14.78,15.74,14.9,37.22,.28,53.43-7.74,8.59-16.13,16.79-24.24,24.73-1.83,1.79-3.66,3.58-5.48,5.38q-1.02,1-.39,2.32c10.41,21.84,25.81,39.78,39.5,54.45,16.82,18.03,33.99,32.53,52.47,44.31,2.85,1.81,5.93,3.47,8.91,5.07,2.32,1.25,4.72,2.54,7.05,3.92,.39,.23,.62,.32,.73,.35,.1-.06,.32-.22,.69-.59,8.17-8.35,16.28-16.42,25.28-25.35,5.24-5.2,13.54-12.33,25.06-14.23,13.21-2.18,25.05,1.75,35.17,11.7,16.45,16.17,32.46,32.24,48.79,48.66,18.63,18.73,19.68,40.59,2.87,59.97-11.31,13.03-24.02,25.25-36.07,36.65-8.5,8.04-19.81,12.96-33.62,14.61-.29,.03-.7,.17-1.14,.31-.3,.1-.6,.2-.91,.28l-.4,.11Zm-15.24-6h14.38c.1-.03,.2-.06,.3-.1,.66-.22,1.42-.47,2.29-.57,12.68-1.52,22.56-5.77,30.21-13.01,11.94-11.3,24.53-23.4,35.66-36.22,14.92-17.19,14.02-35.1-2.59-51.8-16.32-16.4-32.32-32.47-48.75-48.61-8.68-8.53-18.76-11.92-29.98-10.06-7.58,1.25-14.31,5.13-21.81,12.57-8.98,8.91-17.08,16.96-25.22,25.28-2.71,2.77-5.49,3.15-8.77,1.2-2.22-1.32-4.56-2.58-6.82-3.79-3.08-1.65-6.26-3.36-9.29-5.3-18.91-12.06-36.45-26.87-53.63-45.28-14-15.01-29.77-33.39-40.53-55.97-1.73-3.63-1.25-6.37,1.6-9.17,1.83-1.8,3.66-3.59,5.5-5.39,8.04-7.87,16.36-16.01,23.98-24.46,12.4-13.76,12.32-31.97-.2-45.31-18.42-19.61-35.27-36.62-51.52-51.98-16.43-15.53-33.51-15.79-50.76-.76-8.56,7.46-16.68,15.83-24.52,23.93-2.47,2.55-4.94,5.1-7.44,7.63-11.01,11.18-16.55,24.84-16.93,41.78-.36,15.87,2.46,32.16,8.61,49.79,21.36,61.2,59.24,115.3,115.8,165.38,24.69,21.86,53.5,40.94,85.63,56.71,22.23,10.91,40.94,17.55,58.89,20.91,3.64,.68,7.39,1.26,11.02,1.82,1.63,.25,3.27,.51,4.9,.77Zm8.41-13.4c-.43,0-.86,0-1.29-.01h-.03c-16.74-.52-33.67-4.27-51.76-11.48-41.18-16.41-79.32-40.35-113.35-71.16-33.76-30.57-61.87-65.8-83.53-104.69-13.98-25.1-23.03-48.44-27.68-71.35-2.49-12.29-4.26-26.69,1.48-40.26,2.38-5.64,6.2-11.4,11.05-16.66,7.8-8.48,16.17-16.64,24.26-24.53l3.97-3.88c12.59-12.31,22.19-7.99,25.34-6.56,3.14,1.42,6.28,3.67,9.35,6.69,11.77,11.62,23.65,23.51,35.13,35.01,3.84,3.84,7.67,7.68,11.51,11.52,.11,.11,.21,.21,.32,.32,11.59,12.2,11.56,22.94-.1,34.82-9.01,9.19-18.11,18-27.42,26.98-6.98,6.73-7.81,10.99-3.86,19.84,10.85,24.31,27.54,44.25,40.87,58.9,20.88,22.95,42.19,40.8,65.14,54.57,5.18,3.1,10.53,5.86,16.02,8.64,6.44,3.26,11.62,2.44,16.8-2.67,5.65-5.58,11.36-11.29,16.88-16.82,3.69-3.7,7.39-7.39,11.09-11.08,1.71-1.7,3.39-3.34,5.28-4.8,9.08-7.04,19.62-6.61,27.5,1.11,20.09,19.69,36.34,35.94,51.14,51.14,9.48,9.73,9.66,21.01,.5,30.96-10.74,11.67-21.83,23.03-32.96,33.78-8.03,7.76-18.67,11.69-31.63,11.69Zm-1.16-6.01c12.04,.23,21.41-3.03,28.62-9.99,11.04-10.67,22.05-21.95,32.71-33.53,7.01-7.61,6.88-15.25-.38-22.71-14.77-15.16-30.99-31.38-51.05-51.04-5.74-5.62-12.89-5.86-19.62-.65-1.62,1.25-3.16,2.75-4.72,4.31-3.7,3.68-7.39,7.37-11.08,11.07-5.53,5.53-11.25,11.26-16.91,16.85-7.01,6.92-14.99,8.18-23.72,3.75-5.59-2.83-11.05-5.64-16.39-8.85-23.46-14.07-45.21-32.28-66.5-55.67-13.63-14.98-30.71-35.4-41.91-60.49-4.98-11.16-3.63-18.12,5.17-26.61,9.28-8.94,18.34-17.73,27.3-26.86,9.45-9.63,9.46-16.56,.03-26.48l-.21-.21c-3.84-3.84-7.68-7.68-11.51-11.52-11.48-11.5-23.34-23.38-35.1-34.98-2.52-2.49-5.15-4.38-7.6-5.49-6.32-2.85-11.9-1.24-18.68,5.38l-3.98,3.88c-8.03,7.84-16.34,15.94-24.03,24.3-4.38,4.76-7.82,9.93-9.93,14.94-5.09,12.03-3.55,24.77-1.12,36.74,4.52,22.29,13.36,45.06,27.04,69.62,21.35,38.32,49.04,73.03,82.32,103.17,33.5,30.33,71.03,53.9,111.55,70.04,17.42,6.94,33.67,10.55,49.7,11.05Z"/></g><g class="c"><path class="b" d="M0,316.18C0,241.65,0,167.13,0,92.6c1.19-3.78,1.9-7.8,3.65-11.3,7.16-14.32,19.2-20.66,34.99-20.66,110.77,.02,221.55,.01,332.32,.01,.93,0,1.87-.02,2.8,.02,11.54,.5,21.05,4.98,28.31,14.14,4.18,5.27,5.99,11.45,7.53,17.78v223.58c-1.18,3.77-1.89,7.78-3.63,11.27-7.15,14.32-19.2,20.68-34.99,20.67-110.78-.02-221.56,0-332.34,0-.93,0-1.87,.02-2.8-.02-11.87-.52-22.01-4.94-28.62-14.89-3.36-5.05-4.87-11.31-7.22-17.03ZM41.4,84.71c1.19,1.29,1.85,2.06,2.57,2.78,44.7,44.39,89.37,88.81,134.12,133.14,15.94,15.79,37.43,15.82,53.35,.05,44.85-44.42,89.62-88.94,134.4-133.43,.67-.67,1.21-1.48,2.07-2.55H41.4Zm2.36,239.13H365.89c-33.06-33.66-66.8-68.02-101.03-102.87-5.83,5.93-11.19,11.44-16.61,16.9-11.05,11.1-24.3,17.55-40.04,18.37-18.35,.96-33.91-5.45-46.84-18.36-5.44-5.43-10.79-10.96-16.6-16.87-34.22,34.83-67.97,69.19-101.02,102.83Zm-19.54-17.67l.94,.63c33.83-34.4,67.66-68.8,100.42-102.11-33.33-33.81-67.13-68.08-101.36-102.8v204.28Zm258.51-100.89c33.78,33.5,67.98,67.42,102.54,101.71V101.34c-34.55,35.02-68.38,69.31-102.54,103.95Z"/></g></svg>