<?xml version="1.0" encoding="UTF-8"?>
<svg id="a" xmlns="http://www.w3.org/2000/svg" viewBox="0 0 99.9 369.99"><defs><style>.b{fill:#ff8002;}</style></defs><path class="b" d="M82.98,7.89c-5.4,.33-8.72,4.09-8.44,8.76,.13,2.13,.96,4.54,3.33,6.08l-.6-9.71,6.95-.42,1.19,19.43c-3.68,.23-6.03-.27-7.24-.7-6.22-1.85-10.67-8.28-11.03-14.22C66.58,7.93,73.02,.61,82.5,.04c9.53-.58,16.82,6.08,17.37,15.07,.38,6.17-2.51,14.78-12.42,16.71l-.5-8.17c4.47-1.41,5.52-5.17,5.34-8.07-.29-4.68-4.18-7.99-9.31-7.68Z"/><path class="b" d="M90.97,53.98l2.55-.04,.12,7.14-24.59,.41-.11-7.13,2.45-.04c-2.12-1.65-2.84-4.04-2.88-6.41-.13-7.82,6.07-11.97,12.85-12.03,6.73-.02,12.33,3.75,12.47,11.7,.04,2.41-.83,4.79-2.85,6.41Zm-9.59,.16c3.27-.06,5.91-2.6,5.86-5.69-.06-3.64-2.95-5.41-5.95-5.4-2.96,0-5.97,1.92-5.91,5.6,.05,3.09,2.73,5.55,6,5.49Z"/><path class="b" d="M68.23,77.7c.09-5.5,2.71-8.76,9.12-8.6l9.68,.23,.08-3.23,6.14,.15-.08,3.23,4.68,.11,.46,7.15-5.32-.13-.12,5.14-6.14-.15,.12-5.14-9.68-.23c-2.18-.06-2.9,1.52-2.94,3.25-.02,.68,.06,1.41,.18,2.05l-5.91,.08c-.19-1.41-.3-2.73-.27-3.92Z"/><path class="b" d="M76.63,109.91l1.03-17.61c-2.32,.73-3.59,2.89-3.76,5.06-.09,1.59,.37,3.12,1.44,4.23l-.46,7.76c-5.34-2.23-7.71-7.56-7.32-12.73,.5-6.21,5.04-12.14,13.34-11.65,8.44,.5,12.24,7.14,11.82,13.54-.41,6.31-4.96,12.33-13.31,11.83-1-.06-1.9-.2-2.8-.44Zm6.02-7.21c2.49-.54,3.74-2.47,3.88-4.78,.13-2.13-.94-4.15-3.3-5.02l-.57,9.81Z"/><path class="b" d="M68.21,127.87l-2.69-1.34,.73-6.83,24.21-5.27,1.08,.12-.78,7.28-7.63,1.65-6.87,.91,12.25,5.2-.55,5.11-13.07,2.48,6.52,2.35,7.11,3.23-.78,7.28-1.08-.12-22.54-10.29,.73-6.83,3.01-.77,7-1.31-6.64-2.86Z"/><path class="b" d="M81.77,171.81l2.52,.4-1.12,7.05-24.31-3.84,1.12-7.05,2.42,.38c-1.8-1.99-2.1-4.48-1.73-6.81,1.22-7.73,8.06-10.74,14.74-9.64,6.64,1.14,11.51,5.83,10.27,13.69-.38,2.38-1.65,4.57-3.92,5.83Zm-9.48-1.5c3.23,.51,6.28-1.54,6.76-4.59,.57-3.6-1.98-5.84-4.94-6.35-2.91-.51-6.21,.86-6.79,4.5-.48,3.06,1.73,5.94,4.97,6.45Z"/><path class="b" d="M71.93,195.9l7.11,4.54-1.46,7.26-1.12-.22c-9.23-5.98-18.42-11.96-27.66-17.9l1.46-7.27,1.07,.21,7.31,4.72,22.65-3.8,1.11,.23-1.47,7.31-8.32,1.44-6.45,.47,5.75,3.01Z"/><path class="b" d="M55.49,246.16l-2.68-3.54-5.58,2.75-4.26-1.14,1.72-6.46,3.17-1.46c-1.47-2.61-1.82-5-.89-8.47,1.55-5.8,6.62-9.44,12.72-7.81,3.91,1.05,5.62,3.62,6.8,6.62,1.82-.64,3.65-.96,5.84-.37,5.27,1.41,7.16,6.67,5.91,11.37-1.16,4.35-5.56,7.6-10.31,6.33-3.56-.95-5.15-3.26-6.15-6.07l-2.12,1.22,1.48,1.85-5.67,5.17Zm4.66-16.03c-.49-1.17-1.37-2.44-2.55-2.8-.6-.21-1.32-.17-2.09,.24-1.85,.92-2.45,3.54-1.05,5.7l5.69-3.14Zm10.52,3.09c-.84-.22-1.74,.15-2.98,.76,.51,1.45,1.17,2.66,2.26,3,2.09,.65,3.33-3.12,.73-3.76Z"/><path class="b" d="M42.14,272.05l-4.19,12.51-7.12-2.39,6.68-19.93,30.45,10.21-6.66,19.88-7.12-2.38,4.18-12.47-4.23-1.42-4.09,12.21-7.16-2.4,4.09-12.2-4.83-1.62Z"/><path class="b" d="M44.14,310.32l9.04,3.46-2.55,6.66-29.92-11.45,2.55-6.66,2.29,.88c-1.35-2.32-1.13-4.81-.28-7.02,2.79-7.3,10.1-8.84,16.4-6.37,6.25,2.49,10.04,8.08,7.2,15.51-.86,2.25-2.41,4.14-4.74,5Zm-9.25-3.54c3.06,1.17,6.45-.21,7.56-3.09,1.3-3.4-.72-6.12-3.51-7.23-2.74-1.1-6.25-.44-7.57,2.99-1.11,2.88,.46,6.16,3.52,7.33Z"/><path class="b" d="M30.21,317.86c6.5,2.83,10.16,8.79,6.99,15.94-.94,2.17-2.49,4.12-5.06,4.79l2.25,.98-2.85,6.55-21.26-9.26c-8.34-3.63-9.21-10.85-6.72-16.56,2.43-5.59,8.23-9.66,13.69-7.28l-3,6.88c-1.38-.6-3.36,.87-4.22,2.97-.99,2.39-.81,5.5,3.06,7.43l1.17,.51c-1.07-2.2-.77-4.6,.21-6.85,3.16-7.25,9.53-8.79,15.75-6.09Zm-2.95,6.55c-3.19-1.34-5.82,.49-6.91,2.99-1.07,2.56-.55,5.81,2.58,7.18,3,1.31,6.46,.09,7.68-2.71,1.49-3.42-.62-6.32-3.35-7.46Z"/><path class="b" d="M4.79,367.06l7.74-15.86c-2.42-.22-4.42,1.28-5.42,3.23-.7,1.43-.87,3.02-.3,4.46l-3.41,6.99c-4.07-4.11-4.21-9.95-1.85-14.57,2.86-5.54,9.33-9.27,16.81-5.61,7.6,3.71,8.55,11.31,5.7,17.05-2.81,5.66-9.33,9.47-16.85,5.8-.9-.44-1.68-.92-2.41-1.48Zm8.34-4.33c2.51,.46,4.41-.84,5.43-2.92,.94-1.92,.73-4.2-1.11-5.91l-4.31,8.83Z"/></svg>