<?xml version="1.0" encoding="utf-8"?>
<!-- Generator: Adobe Illustrator 26.2.1, SVG Export Plug-In . SVG Version: 6.00 Build 0)  -->
<svg version="1.1" id="Layer_1" xmlns="http://www.w3.org/2000/svg" xmlns:xlink="http://www.w3.org/1999/xlink" x="0px" y="0px"
	 viewBox="0 0 796.1 224.4" style="enable-background:new 0 0 796.1 224.4;" xml:space="preserve">
<style type="text/css">
	.st0{fill:#29B5AC;}
	.st1{fill:#E31837;}
	.st2{fill:#8622F7;}
	.st3{fill:#76D842;}
	.st4{fill:none;}
	.st5{fill:#FF8001;}
	.st6{fill:#1A1A1A;}
</style>
<g id="Group_59" transform="translate(122.451 -18.216)">
	<path id="Path_40" class="st0" d="M-10.7,65.5c8.5-0.2,17,1.5,24.8,5c20.9,9.5,33.3,25.9,38.2,48.1c3,14-29.8,18.4-31.1,8.5
		c-1-9-5.6-17.2-12.7-22.7c-5.5-4.3-12.2-6.6-19.2-6.5L-10.7,65.5"/>
	<path id="Path_41" class="st1" d="M12.4,153.4l22.8,22.8c-4.5,4.7-9.7,8.6-15.5,11.6c-31.7,16.7-71,4.5-87.7-27.2
		c-1.1-2.1-2.1-4.3-3-6.6c-0.2-0.5-0.3-0.9-0.4-1.4c1.6-0.7,3.1-1.4,4.7-2.1c8.3-3.8,16.5-7.7,24.8-11.5c0.2,0.4,0.3,0.7,0.5,1.1
		c5.3,17.1,23.4,26.6,40.5,21.3c3.4-1.1,6.6-2.7,9.5-4.8C9.8,155.6,11,154.5,12.4,153.4"/>
	<path id="Path_42" class="st2" d="M-42,139c-8.3,3.8-16.5,7.7-24.8,11.5c-1.5,0.7-3.1,1.4-4.7,2.1c-1.1-3.3-2.1-6.6-2.8-9.9
		c-3.8-21.9,1.9-41,16.9-57.4c0.3-0.2,0.5-0.5,0.8-0.7l22.4,23.2c-0.2,0.2-0.4,0.5-0.6,0.7c-5.4,5.8-8.4,13.5-8.3,21.4
		C-42.9,133-42.5,136-42,139"/>
	<path id="Path_43" class="st3" d="M-34.1,107.9l-22.4-23.2c3.4-2.8,6.6-5.9,10.2-8.5c7.9-5.4,16.9-8.9,26.4-10.1
		c3.1-0.4,6.2-0.4,9.3-0.6v32.4c-5.4-0.1-10.6,1.3-15.3,4C-28.8,103.7-31.5,105.7-34.1,107.9"/>
	<rect id="Rectangle_51" x="-75.5" y="65.5" class="st4" width="129.2" height="129.9"/>
	<rect id="Rectangle_52" x="-75.5" y="65.5" class="st4" width="129.2" height="129.9"/>
	<path id="Path_44" class="st5" d="M52.3,118.6c3.1,13.7,1.4,28-4.8,40.6c-3,6.4-7.2,12.2-12.3,17.1l-22.8-22.8
		c0.1-0.2,0.3-0.4,0.5-0.7c6.6-6.8,9.7-16.3,8.4-25.7"/>
	<path id="Path_45" class="st0" d="M-10.6,18.2v35.5h0.4c37.9,0,70,27.7,75.8,65.1l32.6-9c-8.4-38.4-29.8-66.7-65.9-83.1
		C19.3,21,5.2,18.1-9,18.2h-0.4C-9.8,18.2-10.2,18.2-10.6,18.2"/>
	<path id="Path_46" class="st1" d="M55.4,196.3l-11.6-11.6c-30,29.8-78.5,29.7-108.3-0.3c-8.5-8.6-14.9-19.1-18.6-30.6
		c-8.1,3.8-16.1,7.5-24.2,11.3l-0.1,0.1l-0.4,0.2c-2.5,1.2-5.1,2.3-7.7,3.4c0.2,0.8,0.4,1.6,0.7,2.4c24.3,62.3,97.7,89.6,156.7,58.4
		c10-5.2,19-11.9,26.8-20l0,0C64.2,205.2,59.8,200.8,55.4,196.3"/>
	<path id="Path_47" class="st2" d="M-107.4,165.1l24.2-11.3c-8.7-27-1.7-56.6,18.1-76.9l-24.7-25.6l0,0c-0.5,0.4-1,0.8-1.4,1.2
		c-26,28.2-35.8,61.3-29.2,99.1c1,5.8,3.2,11.5,4.9,17.2c2.6-1.1,5.1-2.3,7.7-3.4l0.4-0.2L-107.4,165.1"/>
	<path id="Path_48" class="st3" d="M-65.1,77c14.3-14.8,34-23.1,54.6-23.2V18.2l0,0c-5.3,0.3-10.7,0.3-16,1.1
		c-16.4,2.1-32,8.1-45.6,17.4c-6.3,4.3-11.8,9.7-17.7,14.6l0,0L-65.1,77z"/>
	<path id="Path_49" class="st5" d="M66.5,130.4c0,20.4-8.1,40-22.6,54.3l11.6,11.6l13.3,13.3l0,0c8.8-8.5,16-18.5,21.3-29.6
		c10.7-21.7,13.6-46.4,8.3-70.1l0,0l-32.6,8.9C66.2,122.7,66.5,126.6,66.5,130.4"/>
	<rect id="Rectangle_53" x="-122.5" y="18.2" class="st4" width="223.2" height="224.4"/>
</g>
<path id="Path_50" class="st1" d="M613.4,134.4h-10.7l-6.5,18.1l-9.9-30h-12.7v1.6l16.8,50.5h11.2l6.4-18l6.5,18h11.2l16.8-50.5
	v-1.6h-12.7l-9.9,30L613.4,134.4z M644.7,122.2v52.2H657v-21.8c0-4.3,3.5-7.8,7.8-7.8c3.1,0.1,6,2.4,6,7.6v22h11.8v-22.1
	c0.1-10-3-18.4-14.4-18.6c-4.3,0-8.9,1-11.8,4.6v-16.1H644.7z M730.1,154.3c0-13.6-10.2-20.4-20.5-20.5
	c-10.4-0.1-20.9,6.7-20.9,20.5c0,13.5,10.1,20.3,20.2,20.6c8.4,0.1,16.9-4.2,20-13.1h-12.6c-1.8,1.8-4.2,2.8-6.7,2.7
	c-3.7,0.1-7.1-2.2-8.6-5.6h28.7C730,157.3,730.1,155.8,730.1,154.3z M701.4,149.7c0.9-3.5,4.2-5.9,7.8-5.8c3.8,0,7,1.9,8.1,5.8
	H701.4z M777.5,154.3c0-13.6-10.2-20.4-20.5-20.5c-10.4-0.1-20.9,6.7-20.9,20.5c0,13.5,10.1,20.3,20.2,20.6
	c8.4,0.1,16.9-4.2,20-13.1h-12.6c-1.8,1.8-4.2,2.8-6.7,2.7c-3.7,0.1-7.1-2.2-8.6-5.6H777C777.3,157.3,777.5,155.8,777.5,154.3z
	 M748.8,149.7c0.9-3.5,4.2-5.9,7.8-5.8c3.8,0,7,1.9,8.1,5.8H748.8z M784.3,122.6v51.8h11.8v-51.8H784.3z"/>
<path id="Path_51" class="st6" d="M271.3,68.8c0-9.9,7.2-14.8,14.4-14.7c5.8,0.1,11.8,3.5,13.5,10.3h12.8
	c-1.6-13.3-13.1-22.3-26.4-22.3c-14.6-0.2-26.6,11.6-26.8,26.2c0,0.2,0,0.4,0,0.6c0,15.2,12,26.6,26.8,26.6c13.5,0,24.6-9,26.5-22.5
	h-12.8c-1.6,7-7.6,10.5-13.5,10.6C278.4,83.6,271.3,78.7,271.3,68.8z M333.8,77.6L331,67.4l-5-12.8h-12.1v1.8l13.3,34.9l-5.2,13.2
	v1.8h12.1c6.5-16.7,13.1-33.2,19.7-49.9v-1.8h-12.1l-5,12.8L333.8,77.6z M381,54c-3.9-0.2-7.7,1.4-10.4,4.3V42H359v52.7h11.5v-4
	c2.7,3.4,6.7,4.5,10.6,4.5c12.7,0,19.3-10.2,19.2-21.2C400.2,63,394,54,381,54z M379.8,84c-5.2-0.1-9.3-4.4-9.2-9.6
	c-0.1-5.2,4-9.5,9.2-9.7c5.9,0,8.9,4.7,9,9.5C388.8,79.1,385.7,84,379.8,84z M446.7,74.5c0-13.6-10.2-20.4-20.5-20.5
	c-10.4-0.1-20.9,6.7-20.9,20.5c0,13.5,10.1,20.3,20.2,20.6c8.4,0.1,16.9-4.2,20-13.1h-12.7c-1.8,1.8-4.2,2.8-6.7,2.7
	c-3.7,0.1-7.1-2.2-8.6-5.6h28.7C446.5,77.6,446.7,76.1,446.7,74.5L446.7,74.5z M417.9,70c0.9-3.5,4.2-5.9,7.8-5.8
	c3.8,0,7,1.8,8.1,5.8H417.9z M464.9,72.5c0-5.4,4.3-7.6,8.5-7.7c1.3,0,2.7,0.2,3.9,0.6l0.1-11c-1.5-0.4-3-0.6-4.5-0.6
	c-3.3-0.1-6.4,1.2-8.7,3.5l-0.4-2.7h-10.5v40h11.6L464.9,72.5z M482.9,67.5c0,8.8,7.8,11.7,15.4,12.4c1.9,0.1,6.4-0.2,6.4,2.7
	c0,1.4-2.1,2.5-5.1,2.4c-2.7,0-5.5-1.1-5.5-3.8h-11.7c0.1,10.2,7.4,14.5,16.9,14.5c8.9,0,17.1-3.4,17.1-13.5c0-9.5-8.5-13-16.9-13.2
	c-1.7-0.1-4.8-0.1-4.8-2.2c0-2.1,2.4-2.7,4.1-2.7c2.4,0,5.6,0.2,5.6,3.3h11.2c-0.1-9.3-7.5-13.7-16.1-13.7
	C490.5,53.7,482.9,57.8,482.9,67.5L482.9,67.5z M562.5,74.5c0-13.6-10.2-20.4-20.5-20.5c-10.4-0.1-20.9,6.7-20.9,20.5
	c0,13.5,10.1,20.3,20.2,20.6c8.4,0.1,16.9-4.2,20-13.1h-12.7c-1.8,1.8-4.2,2.8-6.7,2.7c-3.7,0.1-7.1-2.2-8.6-5.6H562
	C562.3,77.6,562.5,76.1,562.5,74.5L562.5,74.5z M533.8,70c0.9-3.5,4.2-5.9,7.8-5.8c3.8,0,7,1.8,8.1,5.8H533.8z M597.2,77.6
	c-3,9.9-17.4,8.3-17.4-3s14.4-12.9,17.4-3h11.5c-3.3-24.6-40.3-22.9-40.3,3s37,27.6,40.3,3H597.2z M652.4,94.7v-40h-12.4v21.8
	c0,10.2-13.4,11.8-13.4,0.2v-22h-11.8v22.1c-0.1,9.9,3,18.4,14.4,18.5c4.3,0.1,8.5-1,11.3-4.6v4.1H652.4z M671.5,72.5
	c0-5.4,4.3-7.6,8.5-7.7c1.3,0,2.7,0.2,3.9,0.6l0.1-11c-1.5-0.4-3-0.6-4.5-0.6c-3.3-0.1-6.4,1.2-8.7,3.5l-0.4-2.7h-10.5v40h11.6V72.5
	z M702.5,54.6v40h-11.8v-40H702.5z M689.6,45.8c-0.1-3.6,2.7-6.7,6.4-6.8c0.1,0,0.3,0,0.4,0c3.6-0.1,7.3,2.1,7.3,6.8
	c0,4.3-3.3,6.4-6.7,6.5C693.3,52.4,689.6,50.3,689.6,45.8L689.6,45.8z M734.4,94.7l-0.4-9.6c-1.1,0.2-2.2,0.4-3.3,0.4
	c-2.8,0-5.4-1.1-5.4-4.7V65.1h8.4v-10h-8.4v-8.7l-11.6,1v7.6h-5.3v10h5.3v15.8c0,10.4,5.4,14.6,14.4,14.5
	C730.2,95.3,732.3,95.1,734.4,94.7z M759.1,77.6l-2.8-10.1l-5-12.8h-12.1v1.8l13.3,34.9l-5.2,13.2v1.8h12.1
	c6.5-16.6,13.1-33.2,19.7-49.9v-1.8H767l-5,12.8L759.1,77.6z M272.5,147.9l7.5,11.2h7l7.5-11v25.6H307v-51.8h-9.9l-13.6,20.1
	l-13.6-20.1h-10.1v51.8h12.7V147.9z M330.8,133c-12.9,0-19.2,9-19.4,20c-0.1,11,6.5,21.2,19.2,21.2c3.8,0,7.8-1.1,10.5-4.5v4h11.6
	v-40h-11.6v4.1C338.7,134.6,334.9,132.9,330.8,133z M332.1,163c-6,0-9-5-9-9.8c0.1-4.9,3-9.5,9-9.5c5,0,9.1,4.4,9.1,9.7
	C341.3,158.6,337.3,162.9,332.1,163C332.1,163,332.1,163,332.1,163z M384.6,173.7l-0.4-9.6c-1.1,0.2-2.2,0.4-3.3,0.4
	c-2.8,0-5.4-1.1-5.4-4.7v-15.8h8.4v-10h-8.4v-8.7l-11.6,1v7.6h-5.3v10h5.3v15.8c0,10.4,5.4,14.6,14.4,14.5
	C380.4,174.3,382.5,174.1,384.6,173.7L384.6,173.7z M428.2,173.7v-40h-12.4v21.8c0,10.2-13.4,11.8-13.4,0.2v-22h-11.8v22.1
	c-0.1,9.9,3,18.4,14.4,18.5c4.3,0.1,8.5-1,11.3-4.6v4.1H428.2z M447.2,151.5c0-5.4,4.3-7.6,8.5-7.7c1.3,0,2.7,0.2,3.9,0.6l0.1-11
	c-1.5-0.4-3-0.6-4.5-0.6c-3.3-0.1-6.4,1.2-8.7,3.5l-0.4-2.7h-10.5v40h11.6V151.5z M478.3,133.6v40h-11.8v-40H478.3z M465.4,124.8
	c-0.1-3.6,2.7-6.7,6.4-6.8c0.1,0,0.3,0,0.4,0c3.6-0.1,7.3,2.1,7.3,6.8c0,4.3-3.3,6.4-6.7,6.5C469.1,131.4,465.4,129.3,465.4,124.8z
	 M510.2,173.7l-0.4-9.6c-1.1,0.2-2.2,0.4-3.3,0.4c-2.8,0-5.4-1.1-5.4-4.7v-15.8h8.4v-10h-8.4v-8.7l-11.6,1v7.6h-5.3v10h5.3v15.8
	c0,10.4,5.4,14.6,14.4,14.5C506,174.3,508.1,174.1,510.2,173.7z M534.9,156.6l-2.8-10.1l-5-12.8H515v1.9l13.3,34.9l-5.2,13.2v1.8
	h12.1c6.5-16.6,13.1-33.2,19.7-49.9v-1.8h-12.1l-5,12.8L534.9,156.6z"/>
</svg>
