<svg xmlns="http://www.w3.org/2000/svg" width="291.43" height="67.741" viewBox="0 0 291.43 67.741">
  <g id="Group_36" data-name="Group 36" transform="translate(-96 -82)">
    <g id="Group_2" data-name="Group 2" transform="translate(96 82)">
      <g id="Group_1" data-name="Group 1" transform="translate(0)">
        <path id="Path_2" data-name="Path 2" d="M526.24,405.946a2.314,2.314,0,0,0-.312-.042q-7.252,0-14.5,0c-.172,0-.344-.019-.565-.033v-24.99l-.2-.124c-1.32,1.507-2.515,3.121-3.77,4.683-1.27,1.58-2.519,3.176-3.779,4.763-1.272,1.6-2.546,3.2-3.871,4.869l-11.53-14.53v25.32h-15.38V358.1h4.045c2.67,0,5.341.017,8.01-.018a2.829,2.829,0,0,1,2.447,1.163q5.708,7.364,11.445,14.707c.307.394.64.769.99,1.187,2.732-3.5,5.417-6.933,8.1-10.368,1.479-1.892,2.973-3.772,4.435-5.676a2.329,2.329,0,0,1,2.033-.982c4.082.03,8.166.009,12.248.007.007.308.018.616.018.924q0,22.917.006,45.833a5.082,5.082,0,0,0,.127.8Z" transform="translate(-234.81 -356.367)" fill="#2f2f40"/>
        <path id="Path_3" data-name="Path 3" d="M42,358.329l.137,0q0,23.409,0,46.818c0,.285.022.571.034.856l-.174.051Z" transform="translate(-42 -356.478)" fill="#aaa6a6"/>
        <path id="Path_4" data-name="Path 4" d="M569.877,405.685a5.094,5.094,0,0,1-.127-.8q-.009-22.916-.006-45.833c0-.308-.012-.616-.018-.924l.151-.035Z" transform="translate(-278.447 -356.37)" fill="#7e7a7a"/>
        <path id="Path_5" data-name="Path 5" d="M419.351,354.975a.459.459,0,0,0,.014.12l-3.475,0a.686.686,0,0,0,.016-.118Z" transform="translate(-209.521 -354.975)" fill="#96d3e6"/>
        <path id="Path_6" data-name="Path 6" d="M389.448,355.188l3.475,0a24.832,24.832,0,0,1,11.218,3.365,25.74,25.74,0,0,1,11.769,14.326,26.018,26.018,0,0,1-20.369,33.9,25.6,25.6,0,0,1-15.1-1.939.671.671,0,0,0-.813.137q-6.7,5.268-13.421,10.518-4.659,3.641-9.333,7.261l.008.009a2.771,2.771,0,0,1,.142-.556q3.2-6.56,6.41-13.113,3.058-6.259,6.113-12.521a.881.881,0,0,0-.078-1.014,25.7,25.7,0,0,1-4.143-11.014,24.937,24.937,0,0,1,2.565-15.169,25.551,25.551,0,0,1,19.066-13.918C387.778,355.318,388.618,355.277,389.448,355.188Zm1.785,36.8a11.129,11.129,0,1,0-11.13-11.126A11.107,11.107,0,0,0,391.233,391.988Z" transform="translate(-183.08 -355.07)" fill="#4cb9d6"/>
        <path id="Path_7" data-name="Path 7" d="M42.286,405.915c-.012-.285-.034-.571-.034-.856q0-23.409,0-46.818c.46-.041.92-.117,1.38-.117,3.377,0,6.755.016,10.132.022a2.562,2.562,0,0,1,2.151,1.062Q64,369.578,72.131,379.919c.281.358.587.7.99,1.175V358.282H88.554V406h-.693c-3.62-.011-7.24-.054-10.86-.011a2.585,2.585,0,0,1-2.249-1.1q-7.6-9.746-15.223-19.476c-.6-.772-1.21-1.542-1.916-2.439v22.943Z" transform="translate(-42.111 -356.386)" fill="#2f2f40"/>
        <path id="Path_8" data-name="Path 8" d="M169.6,375.919v11.73h-16.95v5.66h23v12.651h-38.34V358.334h37.774v12.61H152.663v4.975Z" transform="translate(-84.707 -356.48)" fill="#2f2f40"/>
        <path id="Path_9" data-name="Path 9" d="M332.846,396.693a25.658,25.658,0,0,1-12.035,8.153,28.213,28.213,0,0,1-30.591-8.56,23.091,23.091,0,0,1-5.238-12.458c-1.526-13.425,7.914-24.211,19.082-27.032,7.236-1.828,14.283-1.43,20.955,2.2a24.656,24.656,0,0,1,7.249,5.766c.14.167.274.341.435.543l-9.071,9.408a49.635,49.635,0,0,0-4.862-3.469c-4.257-2.347-8.645-2.6-12.958-.1a11.478,11.478,0,0,0,3.956,21.192c4.979.833,9.187-.8,12.853-4.093a15.875,15.875,0,0,0,1.09-1.2Z" transform="translate(-150.795 -355.314)" fill="#2f2f40"/>
        <path id="Path_10" data-name="Path 10" d="M252.394,358.347V372.23H239.949v33.739H224.468V372.361H211.78V358.347Z" transform="translate(-118.07 -356.486)" fill="#2f2f40"/>
        <path id="Path_11" data-name="Path 11" d="M356.823,477.61a.191.191,0,0,1-.027.049c-.006.007-.024,0-.036,0l.072-.042Z" transform="translate(-183.028 -409.921)" fill="#4cb9d6"/>
      </g>
    </g>
  </g>
</svg>
