<?xml version="1.0" encoding="UTF-8"?><svg id="a" xmlns="http://www.w3.org/2000/svg" viewBox="0 0 192.12 63.92"><defs><style>.b{fill:#e31737;}</style></defs><path class="b" d="M182.72,0l9.39,30.4-5.73,1.77-15.21-11.95,4.7,15.2-7.34,2.27-9.39-30.4,5.82-1.8,14.95,11.6-4.58-14.81,7.38-2.28Z"/><path class="b" d="M133.73,23.89l17.07-4.44c-1.41-1.98-3.85-2.52-5.97-2.02-1.54,.4-2.86,1.31-3.58,2.67l-7.52,1.96c.47-5.76,4.81-9.66,9.85-10.88,6.06-1.44,13.1,1.05,15.19,9.11,2.13,8.19-3.02,13.85-9.24,15.42-6.13,1.55-13.26-.92-15.36-9.02-.25-.97-.39-1.87-.44-2.8Zm8.71,3.51c1.28,2.21,3.5,2.8,5.74,2.22,2.07-.54,3.66-2.17,3.76-4.69l-9.5,2.47Z"/><path class="b" d="M116.25,17.62c5.36-1.24,9.16,.53,10.55,6.79l2.11,9.46,3.15-.7,1.33,5.99-3.15,.7,1.02,4.57-6.83,2.17-1.16-5.2-5.02,1.12-1.33-5.99,5.02-1.12-2.11-9.46c-.48-2.13-2.18-2.45-3.87-2.08-.67,.15-1.35,.4-1.95,.67l-1.51-5.72c1.33-.53,2.59-.95,3.74-1.21Z"/><path class="b" d="M94.24,25.35l.54-2.96,6.76-1.21,11.82,21.77,.19,1.07-7.21,1.28-3.72-6.86-2.79-6.34-1.57,13.21-5.05,.9-6.04-11.85-.43,6.91-1.12,7.73-7.21,1.28-.19-1.07,3.57-24.51,6.76-1.2,1.58,2.67,3.21,6.35,.89-7.18Z"/><path class="b" d="M73.33,38.52c2.21,17.41-23.82,20.67-26.02,3.3-2.21-17.36,23.83-20.58,26.02-3.3Zm-18.9,2.4c1.05,8.3,12.82,6.76,11.77-1.5-1.04-8.16-12.81-6.71-11.77,1.5Z"/><path class="b" d="M34.63,30.64l7.11-.64,2.22,24.49-6.43,.58-.42-1.61c-1.45,1.64-3.16,2.43-5.15,2.61-.86,.08-1.82,.03-2.79-.11l-.52-6.71c.74,.16,1.62,.22,2.43,.14,2.58-.28,5.08-1.88,4.78-5.18l-1.23-13.58Z"/><path class="b" d="M16.24,47.03l-6.21,10.05-7.81,.45-.02-.36,7.63-12.32L.02,33.35l-.02-.32,8.35-.48,7.59,9.18-.04-.68-.51-8.9,7.13-.41,1.82,31.77-7.12,.41-.92-16.07-.05-.81Z"/></svg>