<svg xmlns="http://www.w3.org/2000/svg" xmlns:xlink="http://www.w3.org/1999/xlink" width="692" height="147" viewBox="0 0 692 147">
  <defs>
    <clipPath id="clip-path">
      <rect id="Rectangle_3" data-name="Rectangle 3" width="692" height="147" transform="translate(0.39 0.361)" fill="none"/>
    </clipPath>
    <clipPath id="clip-path-2">
      <rect id="Rectangle_2" data-name="Rectangle 2" width="692" height="147" transform="translate(0.096 0.067)" fill="none"/>
    </clipPath>
    <clipPath id="clip-path-3">
      <rect id="Rectangle_4" data-name="Rectangle 4" width="147" height="147" fill="#cc0018"/>
    </clipPath>
  </defs>
  <g id="Group_10" data-name="Group 10" transform="translate(135 252)">
    <g id="Group_6" data-name="Group 6" transform="translate(-135.39 -252.361)">
      <g id="Group_5" data-name="Group 5" clip-path="url(#clip-path)">
        <g id="Group_4" data-name="Group 4" transform="translate(0.294 0.294)">
          <g id="Group_3" data-name="Group 3" clip-path="url(#clip-path-2)">
            <g id="Group_2" data-name="Group 2">
              <g id="Group_9" data-name="Group 9">
                <path id="Path_3" data-name="Path 3" d="M2324.515,118.161a.2.2,0,0,1-.114-.2l-.536-1.387-.116-.542-.469-1.223-.113-.542q-.218-.614-.436-1.229l-.157-.259q0-.3,0-.61l-.561-.872a1.193,1.193,0,0,0-.1-.267l-.18,0-.028.311.156.865.129.62c0,1.468.068,2.942-.038,4.4-.031.429-.554.822-.851,1.232-.278-.409-.788-.813-.8-1.227-.068-3.071-.037-6.144-.037-9.176,2.191-.423,2.3-.295,2.872,1.641.566,1.909,1.283,3.773,2.011,5.879a3.847,3.847,0,0,0,.609-.833c.6-1.7,1.226-3.388,1.729-5.114.413-1.414,1.155-2.162,2.7-1.824V118.1h-1.179q-.138-2.647-.275-5.293l.142-.8q.035-.554.07-1.107l-.405-.067-.38,1.117-.291.869-1.79,4.985-1.563.356" transform="translate(-1638.09 -76.334)" fill="#121316"/>
                <path id="Path_4" data-name="Path 4" d="M2349.992,143h1.179v.588l-1.179-.587" transform="translate(-1659.075 -101.233)" fill="#1e1f23"/>
                <path id="Path_5" data-name="Path 5" d="M1577.473,169.314c.024-.487.069-.974.069-1.461q.015-29.094.023-58.189l.417-.5c5.634-.006,11.268.03,16.9-.046,1.431-.019,1.832.441,1.831,1.849q-.053,44.679-.035,89.358c0,3.084.582,2.8-2.793,2.8q-9.553.011-19.106,0c-3.06,0-3.116.031-4.536-2.525-2.33-4.191-4.546-8.445-6.872-12.637-2.045-3.686-4.217-7.3-6.26-10.989-2.619-4.726-5.151-9.5-7.747-14.238q-5.147-9.4-10.337-18.771c-.364-.66-.766-1.3-1.15-1.949q.01-.309.02-.618l-.251-.436-.35.462.1.564q.017,29.253.027,58.506c0,2.9.55,2.622-2.655,2.628-5,.009-10-.027-14.994.026-1.111.012-1.524-.219-1.522-1.443q.052-45.5.008-90.994c0-1.186.307-1.607,1.569-1.6,7.3.058,14.6.077,21.9-.016a2.592,2.592,0,0,1,2.531,1.525q3.668,6.525,7.253,13.1c3.053,5.57,6.061,11.164,9.133,16.724,2,3.62,4.083,7.193,6.119,10.793q2.869,5.075,5.716,10.163c1.445,2.575,2.88,5.156,4.339,7.723.071.126.333.144.506.212l.126.32.021-.349" transform="translate(-1071.976 -77.309)" fill="#050506"/>
                <path id="Path_6" data-name="Path 6" d="M954.381,136.8q0,1.5,0,3l-.432,3.076a71.537,71.537,0,0,1-2.634,7.719,26.931,26.931,0,0,1-12.9,12.852c-1.807.9-1.816.877-.962,2.6q6.964,14.1,13.931,28.191c1.523,3.077,3.083,6.136,4.626,9.2l-.034.3c-5.558.027-11.115.074-16.673.073-2.673,0-5.347-.09-8.021-.139l-.241-.239c-.57-1.7-1.107-3.407-1.718-5.09-1.389-3.827-2.766-7.659-4.243-11.452-1.1-2.821-2.347-5.584-3.528-8.374l-4.128-9.75-.769-1.54c-.415-.186-.829-.534-1.245-.536-6.469-.033-12.938-.022-19.408-.016-.086,0-.173.069-.47.2v1.614c0,11.175-.019,22.351.025,33.526.005,1.352-.272,1.872-1.775,1.847-5.733-.1-11.469-.063-17.2-.015-1.072.009-1.45-.268-1.45-1.392q.038-45.583,0-91.166c0-1.1.329-1.415,1.428-1.412,13.234.035,26.468-.05,39.7.065a95.007,95.007,0,0,1,13.032.924c7.2,1.064,13.667,3.789,18.515,9.555a23.142,23.142,0,0,1,4.643,8.115c.526,1.72,1,3.457,1.5,5.186q.217,1.535.434,3.071m-32.809,13.455c.609-.111,1.227-.184,1.824-.341,3.021-.794,5.838-2.1,7.456-4.851a13.8,13.8,0,0,0,1.312-11.306,9.227,9.227,0,0,0-5.345-6.029,21.706,21.706,0,0,0-8.747-1.537c-6.862-.074-13.725-.023-20.587-.023h-1.839v24.272c.674,0,1.3,0,1.921,0l22.789-.081c.459.6.877.706,1.216-.1" transform="translate(-618.02 -77.855)" fill="#050506"/>
                <path id="Path_7" data-name="Path 7" d="M1935.228,153.559q.006,2.627.013,5.255c-.88,1.042-.565,2.152-.185,3.266l-.094.862q.013.154.026.308a40.236,40.236,0,0,1-.6,4.982c-.821,3.38-1.781,6.73-2.792,10.06-1.211,3.988-3.557,7.342-6.118,10.568a35.129,35.129,0,0,1-9.772,8.2,44.654,44.654,0,0,1-13.581,4.928,82.806,82.806,0,0,1-8.583,1.007l-3.571.123q-11.466.031-22.931.061c-3.283.007-6.567-.027-9.849.02-1.009.014-1.349-.291-1.348-1.34q.039-45.573,0-91.146c0-1.135.33-1.54,1.5-1.536,10.487.036,20.975-.067,31.459.07a88.187,88.187,0,0,1,10.1,1.062,36.684,36.684,0,0,1,6.992,1.238,66.031,66.031,0,0,1,10.331,4.321,32.1,32.1,0,0,1,7.12,5.364,37.449,37.449,0,0,1,9.392,16,58.265,58.265,0,0,1,2.294,13.35l.185,2.973m-43.734-27.121c-.51-1.588-1.5-.759-2.383-.474H1876.37c-.039.355-.078.544-.078.732q0,29.56.01,59.121c0,.147.01.295,0,.441-.072.772.3,1.036,1.043,1.029,4.018-.038,8.037-.051,12.055-.073.524.59,1.033.684,1.519-.043a34.728,34.728,0,0,0,8.427-2.07c7.071-2.8,10.867-8.161,12.746-15.24a43.531,43.531,0,0,0,1.459-11.615v-4.122a39.871,39.871,0,0,0-2.806-15.152,18.778,18.778,0,0,0-10.79-10.7,19.515,19.515,0,0,0-8.458-1.838" transform="translate(-1310.275 -77.358)" fill="#050506"/>
                <path id="Path_8" data-name="Path 8" d="M1236.813,146.7h1.382c13.428,0,26.856.013,40.285-.03,1.189,0,1.521.381,1.509,1.509-.045,4.361-.054,8.724.005,13.085.016,1.174-.364,1.479-1.516,1.476q-20.215-.059-40.432-.028h-1.23V187.27h1.379c15.143,0,30.287.016,45.43-.032,1.278,0,1.564.409,1.548,1.59q-.086,6.468,0,12.937c.012,1.054-.229,1.439-1.378,1.437q-33.08-.051-66.161,0c-1.055,0-1.322-.331-1.321-1.342q.034-45.577,0-91.155c0-1.1.251-1.538,1.479-1.536q32.2.057,64.4.006c1.213,0,1.635.384,1.618,1.61-.058,4.214-.076,8.43.005,12.643.027,1.4-.372,1.844-1.811,1.839-14.653-.05-29.307-.032-43.96-.032h-1.229Z" transform="translate(-858.848 -77.351)" fill="#040505"/>
                <path id="Path_9" data-name="Path 9" d="M564.722,109.262c.782-.021,1.565-.06,2.347-.06q35.737-.006,71.474-.03c1.256,0,1.722.274,1.7,1.615q-.119,6.469,0,12.941c.021,1.258-.406,1.544-1.6,1.536-8.235-.049-16.471-.026-24.707-.027h-1.4c-.032.608-.079,1.081-.079,1.554q0,37.355.033,74.71c0,1.412-.424,1.721-1.738,1.707q-8.6-.093-17.206,0c-1.229.013-1.572-.353-1.571-1.576q.05-37.355.06-74.709c0-1.374-.346-1.725-1.7-1.714-8.137.062-16.275,0-24.412.061-1.407.011-1.868-.379-1.835-1.815.105-4.555.078-9.113.1-13.67l.534-.521" transform="translate(-398.463 -77.355)" fill="#040505"/>
                <path id="Path_10" data-name="Path 10" d="M2184.762,374.954q4.722-2.747,9.442-5.5c.431-.252.843-.539,1.231-.789-1.762-.889-3.335-1.637-4.865-2.466-1.858-1.007-3.719-2.019-5.492-3.164a3.117,3.117,0,0,1-1.153-1.758,10.308,10.308,0,0,1-.027-2.487l.639-.467q10.186-.032,20.372-.053a1.967,1.967,0,0,1,.639.245q-.108,2.132-.218,4.264l-11.452.126.065-.045-.031-.073-.355-.161-1.143.109c-.01.12-.021.239-.031.359l1.5.654c2.3,1.284,4.6,2.563,6.889,3.856,1.445.815,1.453,2.07.013,2.9-2.289,1.313-4.589,2.6-6.885,3.9l-1.786.789c.039.126.077.252.116.378l1.667-.361,11.435.106q.086,2,.171,4.006a3.907,3.907,0,0,1-.824.18q-9.686.015-19.371,0a4.529,4.529,0,0,1-.838-.157q.143-2.2.286-4.4" transform="translate(-1541.788 -253.187)" fill="#0a0a0c"/>
                <path id="Path_11" data-name="Path 11" d="M2205.8,194.02a9.613,9.613,0,0,1-1.272.168c-6.087.011-12.175.029-18.261-.024a6.137,6.137,0,0,1-1.892-.692c.013-.036.044-.077.035-.107a1.187,1.187,0,0,0-.09-.185c-.089-1.98-.269-3.961-.242-5.939.029-2.155.272-4.285,1.966-5.934,1.408-1.37,2.911-2.147,4.945-1.433.793.279,1.843.014,2.51.426a31.158,31.158,0,0,1,3.454,2.81l9.157-5.666a45.542,45.542,0,0,1-.054,4.686c-.054.489-.648,1.038-1.133,1.337-1.932,1.19-3.895,2.337-5.894,3.41-1.009.542-1.831,1.072-1.306,2.672,1.657,0,3.49-.012,5.324,0,3.279.027,3.036-.532,3.03,3.055,0,.391-.033.782-.051,1.172l-.227.241m-14.759-4.353a10.824,10.824,0,0,1,1.466.011c1.243.17,1.73-.34,1.556-1.564-.047-.336.09-.731-.04-1.017-.368-.812-.681-2.077-1.287-2.257a5.888,5.888,0,0,0-3.493.179c-1.039.381-1.686,3.071-.966,4.05.368.5,1.522.423,2.324.6a2.168,2.168,0,0,0,.439,0" transform="translate(-1541.96 -125.547)" fill="#0a0a0c"/>
                <path id="Path_12" data-name="Path 12" d="M2193.863,108.946c2.8-.041,5.547.035,8.008,1.694,3.142,2.118,4.046,5.174,3.624,8.688a7.885,7.885,0,0,1-5.606,6.928,17.423,17.423,0,0,1-11.443.086c-2.48-.895-5.71-4.382-5.6-7.658.077-2.35.274-4.5,1.835-6.455,1.759-2.2,4.117-2.913,6.692-3.265a18.567,18.567,0,0,1,2.495-.017m-.265,13.2.076.385a45.112,45.112,0,0,0,5.673-1.331,3.363,3.363,0,0,0,2.07-3.532c-.061-1.629-1.708-3.832-3.594-3.923a28.157,28.157,0,0,0-8.471.607c-3.113.827-2.869,4.829-1.309,6.367,1.621,1.6,3.554,1.532,5.554,1.427" transform="translate(-1541.088 -77.169)" fill="#0a0a0c"/>
                <path id="Path_13" data-name="Path 13" d="M2190.294,267.555c-2.2.424-6.195-3.649-6.827-5.835a15.383,15.383,0,0,1,.252-8.685l3.567.641c-.073,1.577-.182,3.012-.2,4.447a4.956,4.956,0,0,0,4.884,4.987c1.322.019,2.646.03,3.968.013a5.517,5.517,0,0,0,5.314-6.913c-.091-.371-.017-.782-.109-1.152-.16-.651-1.2-1.372.033-1.9,1.8-.775,3.3-.4,3.743.863,1.424,4.028.924,8.958-2.8,11.869a12.08,12.08,0,0,1-5.23,2.043l-6.595-.374" transform="translate(-1541.167 -178.704)" fill="#0a0a0c"/>
                <path id="Path_14" data-name="Path 14" d="M2184.108,326.289q.112-1.918.223-3.836l.363-.165c6.72-.011,13.44-.029,20.16-.01.339,0,.677.32,1.015.491q-.057,1.9-.113,3.808c-.209.092-.418.264-.626.264q-10.2-.015-20.4-.061l-.62-.489" transform="translate(-1541.983 -227.773)" fill="#050506"/>
                <path id="Path_15" data-name="Path 15" d="M2295.992,108.8c-.328.288-.622.757-.99.826a14.569,14.569,0,0,1-2.458.039v8.789l-.858.389c-.992.024-.878-.7-.88-1.324-.008-2.092,0-4.185,0-6.278,0-.474-.039-.948-.067-1.577a14.378,14.378,0,0,1-2.38-.039c-.366-.064-.662-.534-.99-.819l.515-.553,7.58,0,.531.551" transform="translate(-1614.87 -76.705)" fill="#0a0a0c"/>
                <path id="Path_20" data-name="Path 20" d="M2207.915,303.079l6.595.374c-.114.142-.232.412-.341.409-1.872-.059-3.744-.135-5.612-.261-.225-.015-.428-.341-.642-.522" transform="translate(-1558.788 -214.227)" fill="#626066"/>
                <path id="Path_27" data-name="Path 27" d="M2184.654,414.986q-.143,2.2-.286,4.4c-.048.005-.117.034-.141.012-.913-.815-.628-3.736.427-4.409" transform="translate(-1541.68 -293.219)" fill="#27272b"/>
                <path id="Path_28" data-name="Path 28" d="M2256.932,363.37q.109-2.132.218-4.264c.69,1.07.559,3.643-.218,4.264" transform="translate(-1593.387 -253.775)" fill="#27272b"/>
                <path id="Path_30" data-name="Path 30" d="M2257.122,420.169q-.086-2-.171-4.006l.285-.03q-.057,2.019-.114,4.036" transform="translate(-1593.401 -294.029)" fill="#27272b"/>
                <path id="Path_31" data-name="Path 31" d="M2257.705,327.774l.113-3.808-.113,3.808" transform="translate(-1593.933 -228.971)" fill="#1e1f23"/>
                <path id="Path_33" data-name="Path 33" d="M2124.227,281.2c-.381-1.114-.7-2.224.185-3.266q-.092,1.633-.185,3.266" transform="translate(-1499.446 -196.48)" fill="#353439"/>
                <path id="Path_34" data-name="Path 34" d="M1143.525,194.019q-.217-1.535-.434-3.071.217,1.536.434,3.071" transform="translate(-807.164 -135.078)" fill="#9d9ba0"/>
                <path id="Path_35" data-name="Path 35" d="M1143.1,214.677q.216-1.538.432-3.076-.216,1.538-.432,3.076" transform="translate(-807.174 -149.656)" fill="#9d9ba0"/>
                <path id="Path_36" data-name="Path 36" d="M2125.283,252.939q-.093-1.486-.185-2.973.093,1.486.185,2.973" transform="translate(-1500.33 -176.737)" fill="#353439"/>
                <path id="Path_37" data-name="Path 37" d="M2213.794,413.941l-1.666.361-.116-.378,1.786-.789q0,.4,0,.806" transform="translate(-1561.679 -291.912)" fill="#9d9ba0"/>
                <path id="Path_38" data-name="Path 38" d="M2214.418,374.206l-1.5-.654q.015-.179.031-.359l1.143-.109.355.161.03.073-.065.045q0,.422.008.844" transform="translate(-1562.317 -263.642)" fill="#d3d1d5"/>
                <path id="Path_39" data-name="Path 39" d="M2334.721,142.349l1.563-.356c-.4,1.16-.756,1.241-1.563.356" transform="translate(-1648.296 -100.522)" fill="#57555a"/>
                <path id="Path_40" data-name="Path 40" d="M2347.126,122.146l-.142.8-.863.011.291-.869.715.057" transform="translate(-1656.342 -86.473)" fill="#bebcc0"/>
                <path id="Path_42" data-name="Path 42" d="M1016.313,304.87l.769,1.54-.769-1.54" transform="translate(-717.676 -215.492)" fill="#4f4d53"/>
                <path id="Path_43" data-name="Path 43" d="M2330.524,131.826l.469,1.223-.469-1.223" transform="translate(-1645.333 -93.346)" fill="#57555a"/>
                <path id="Path_44" data-name="Path 44" d="M2332.511,137.827l.536,1.387-.536-1.387" transform="translate(-1646.736 -97.582)" fill="#57555a"/>
                <path id="Path_45" data-name="Path 45" d="M2328.66,125.805l.436,1.229-.436-1.229" transform="translate(-1644.017 -89.096)" fill="#57555a"/>
                <path id="Path_46" data-name="Path 46" d="M2302.054,143.335l.858-.389-.858.389" transform="translate(-1625.237 -101.195)" fill="#bebcc0"/>
                <path id="Path_47" data-name="Path 47" d="M2315.418,108.8l-.531-.551.531.551" transform="translate(-1634.296 -76.705)" fill="#4f4d53"/>
                <path id="Path_48" data-name="Path 48" d="M2287.881,108.265l-.515.553.515-.553" transform="translate(-1614.87 -76.715)" fill="#4f4d53"/>
                <path id="Path_49" data-name="Path 49" d="M564.971,109.478l-.534.521.534-.521" transform="translate(-398.711 -77.571)" fill="#69676c"/>
                <path id="Path_50" data-name="Path 50" d="M2326.417,122.851q0,.305,0,.61l-.583.043-.129-.62.711-.034" transform="translate(-1641.932 -87.011)" fill="#aeacb1"/>
                <path id="Path_51" data-name="Path 51" d="M2184.7,358.454l-.639.468.639-.468" transform="translate(-1541.952 -253.315)" fill="#69676c"/>
                <path id="Path_52" data-name="Path 52" d="M1583.1,219.512l-.1-.564.6-.026q-.01.309-.02.618l-.484-.028" transform="translate(-1117.683 -154.824)" fill="#838086"/>
                <path id="Path_53" data-name="Path 53" d="M1720.329,109.315l-.417.5.417-.5" transform="translate(-1214.323 -77.456)" fill="#9d9ba0"/>
                <path id="Path_54" data-name="Path 54" d="M1149.995,428.283q.017-.15.034-.3l.4.419-.432-.119" transform="translate(-812.037 -302.394)" fill="#e3e2e5"/>
                <path id="Path_55" data-name="Path 55" d="M2184.108,335.936l.621.489-.621-.489" transform="translate(-1541.983 -237.42)" fill="#626066"/>
                <path id="Path_57" data-name="Path 57" d="M2257.937,233.218l.227-.241-.227.241" transform="translate(-1594.097 -164.745)" fill="#2e2d32"/>
                <path id="Path_58" data-name="Path 58" d="M2124.851,292.279q-.013-.154-.026-.308l.026.308" transform="translate(-1500.137 -206.387)" fill="#353439"/>
                <path id="Path_59" data-name="Path 59" d="M1719.245,313.712l-.021.349-.126-.32.063-.067Z" transform="translate(-1213.748 -221.706)" fill="#9d9ba0"/>
                <path id="Path_60" data-name="Path 60" d="M2185.229,322.331l-.363.165.363-.165" transform="translate(-1542.518 -227.817)" fill="#57555a"/>
                <path id="Path_61" data-name="Path 61" d="M2184.477,230.941a1.125,1.125,0,0,1,.09.185c.009.029-.022.071-.035.107l-.234-.04Z" transform="translate(-1542.117 -163.308)" fill="#908e93"/>
                <path id="Path_63" data-name="Path 63" d="M1065.22,427.963l.241.24-.241-.24" transform="translate(-752.197 -302.379)" fill="#353439"/>
                <path id="Path_69" data-name="Path 69" d="M2347.823,119.467l-.715-.057q.191-.559.38-1.117l.405.067q-.035.553-.07,1.107" transform="translate(-1657.039 -83.793)" fill="#69676c"/>
                <path id="Path_70" data-name="Path 70" d="M2326.042,120.758l-.711.034q-.078-.433-.156-.866l.307-.04.561.872" transform="translate(-1641.557 -84.918)" fill="#57555a"/>
                <path id="Path_71" data-name="Path 71" d="M2325.481,119.237l-.307.04q.015-.155.028-.31l.18,0a1.2,1.2,0,0,1,.1.267" transform="translate(-1641.557 -84.269)" fill="#4f4d53"/>
                <path id="Path_72" data-name="Path 72" d="M2325.45,118.971l-.181,0,.181,0" transform="translate(-1641.624 -84.269)" fill="#57555a"/>
                <path id="Path_73" data-name="Path 73" d="M1583.6,217.877l-.6.026.35-.461.251.435" transform="translate(-1117.683 -153.779)" fill="#2e2d32"/>
                <path id="Path_74" data-name="Path 74" d="M1028.889,247.239l1.216-.1c-.339.809-.757.7-1.216.1" transform="translate(-726.553 -174.739)" fill="#27272b"/>
                <path id="Path_75" data-name="Path 75" d="M2052.017,266.115v0" transform="translate(-1448.745 -185.226)" fill="#bebcc0"/>
                <path id="Path_76" data-name="Path 76" d="M1971.321,165.6l-2.383-.474c.882-.284,1.873-1.114,2.383.474" transform="translate(-1390.102 -116.517)" fill="#353439"/>
                <path id="Path_77" data-name="Path 77" d="M1969.91,374.388l1.519-.043c-.486.727-1,.633-1.519.043" transform="translate(-1390.788 -264.532)" fill="#2e2d32"/>
                <path id="Path_78" data-name="Path 78" d="M2217.261,373.245l-.355-.161.355.161" transform="translate(-1565.134 -263.642)" fill="#4f4d53"/>
              </g>
            </g>
          </g>
        </g>
      </g>
    </g>
    <g id="Group_8" data-name="Group 8" transform="translate(-135 -252)">
      <g id="Group_7" data-name="Group 7" clip-path="url(#clip-path-3)">
        <path id="Path_79" data-name="Path 79" d="M146.854,78.1V68.954A73.5,73.5,0,0,0,76.791.1H70.21A73.5,73.5,0,0,0,0,73.523v.007a73.5,73.5,0,0,0,70.4,73.427H76.6A73.5,73.5,0,0,0,146.854,78.1M19.464,122.6c-8.254-10.588-6.247-27.751,4.859-45.242h-8.4l1.991-4.638s15.057-3.033,30.268-16.827l6.1-.046L46.719,72.2H59.136L56.8,77.13l-12.228-.053c-10.435,20.413-9.054,26.912-7.254,31.969,4.836,13.612,31.015,9.795,56.8-10.351s37.6-48.11,26.385-62.465c-9.772-12.5-34.074-10.283-57.019,3.7C92.12,21.614,122.224,18.2,133.913,33.185c13.168,16.82-1.8,50.474-33.41,75.166S32.629,139.427,19.464,122.6" transform="translate(0 -0.027)" fill="#cc0018"/>
      </g>
    </g>
  </g>
</svg>
